<svg id="engine" xmlns="http://www.w3.org/2000/svg" width="16.852" height="16.853" viewBox="0 0 16.852 16.853">
  <g id="Group_1150" data-name="Group 1150">
    <g id="Group_1149" data-name="Group 1149">
      <path id="Path_1765" data-name="Path 1765" d="M8.426,0a8.426,8.426,0,1,0,8.426,8.426A8.435,8.435,0,0,0,8.426,0Zm0,16.12A7.693,7.693,0,1,1,16.12,8.426,7.7,7.7,0,0,1,8.426,16.12Z" fill="#fff"/>
    </g>
  </g>
  <g id="Group_1152" data-name="Group 1152" transform="translate(7.327 7.327)">
    <g id="Group_1151" data-name="Group 1151">
      <path id="Path_1766" data-name="Path 1766" d="M161.1,160a1.1,1.1,0,1,0,1.1,1.1A1.1,1.1,0,0,0,161.1,160Zm0,1.465a.366.366,0,1,1,.366-.366A.366.366,0,0,1,161.1,161.465Z" transform="translate(-160 -160)" fill="#fff"/>
    </g>
  </g>
  <g id="Group_1154" data-name="Group 1154" transform="translate(2.198 2.198)">
    <g id="Group_1153" data-name="Group 1153">
      <path id="Path_1767" data-name="Path 1767" d="M58.644,49.842c0-.005-.007-.012-.012-.018s-.012-.007-.018-.012a6.215,6.215,0,0,0-8.775,0c-.005,0-.011.006-.016.011s-.006.011-.011.016a6.215,6.215,0,0,0,0,8.776s.005.011.01.015.011.006.015.01a6.215,6.215,0,0,0,8.776,0c.005,0,.012-.006.016-.011s.006-.011.011-.016a6.215,6.215,0,0,0,0-8.773Zm1.06,4.02H57.5a3.28,3.28,0,0,0-.7-1.689l1.557-1.557A5.465,5.465,0,0,1,59.7,53.862Zm-5.11-5.11A5.467,5.467,0,0,1,57.841,50.1l-1.557,1.557a3.28,3.28,0,0,0-1.69-.7Zm-.733,0v2.2a3.282,3.282,0,0,0-1.69.7L50.615,50.1A5.466,5.466,0,0,1,53.862,48.751ZM50.1,50.615l1.557,1.557a3.276,3.276,0,0,0-.7,1.689h-2.2A5.465,5.465,0,0,1,50.1,50.615Zm-1.346,3.979h2.2a3.28,3.28,0,0,0,.7,1.69L50.1,57.841A5.462,5.462,0,0,1,48.751,54.594Zm5.11,5.11a5.466,5.466,0,0,1-3.246-1.346L52.173,56.8a3.28,3.28,0,0,0,1.689.7Zm-2.2-5.477a2.564,2.564,0,1,1,2.564,2.564A2.568,2.568,0,0,1,51.664,54.228Zm2.931,5.477V57.5a3.284,3.284,0,0,0,1.689-.7l1.557,1.557A5.465,5.465,0,0,1,54.594,59.705Zm3.764-1.864L56.8,56.284a3.278,3.278,0,0,0,.7-1.69h2.2A5.464,5.464,0,0,1,58.359,57.841Z" transform="translate(-48 -48)" fill="#fff"/>
    </g>
  </g>
</svg>
