<svg xmlns="http://www.w3.org/2000/svg" width="13.358" height="16.777" viewBox="0 0 13.358 16.777">
  <g id="template" transform="translate(-4.934 0.104)">
    <path id="Path_1761" data-name="Path 1761" d="M5.246,16.587H17.98a.212.212,0,0,0,.212-.212V5.873a.212.212,0,0,0-.212-.212H12.5V.233A.212.212,0,0,0,12.29.021H5.246a.212.212,0,0,0-.212.212V16.375A.212.212,0,0,0,5.246,16.587ZM5.458.445h6.62V5.873a.212.212,0,0,0,.212.212h5.478V16.163H5.458Z" transform="translate(0 -0.014)" fill="#fff" stroke="#fff" stroke-width="0.2"/>
    <path id="Path_1762" data-name="Path 1762" d="M28.563,4.647h4.316a.179.179,0,0,0,.18-.178.169.169,0,0,0-.079-.146L28.69.052a.184.184,0,0,0-.2-.039.178.178,0,0,0-.111.165V4.469A.179.179,0,0,0,28.563,4.647Zm.18-4.038,3.7,3.682h-3.7Z" transform="translate(-14.879 0)" fill="#fff" stroke="#fff" stroke-width="0.2"/>
    <path id="Path_1763" data-name="Path 1763" d="M20.588,20.822H13.38a.212.212,0,0,0-.212.212v3.08a.212.212,0,0,0,.212.212h7.208a.212.212,0,0,0,.212-.212v-3.08A.212.212,0,0,0,20.588,20.822Zm-.212,3.08H13.592V21.246h6.784Z" transform="translate(-5.375 -13.759)" fill="#fff" stroke="#fff" stroke-width="0.2"/>
    <path id="Path_1764" data-name="Path 1764" d="M21.464,33.528H16.63a.212.212,0,1,0,0,.424h4.834a.212.212,0,1,0,0-.424Z" transform="translate(-7.522 -22.154)" fill="#fff" stroke="#fff" stroke-width="0.2"/>
  </g>
</svg>
