<svg xmlns="http://www.w3.org/2000/svg" width="13.966" height="13.966" viewBox="0 0 13.966 13.966">
  <g id="CONFIGURATION" transform="translate(0 -0.001)">
    <g id="Group_1339" data-name="Group 1339" transform="translate(0 0.001)">
      <path id="Path_1903" data-name="Path 1903" d="M13.251,5.518l-.98-.166a5.535,5.535,0,0,0-.394-.951l.578-.808a.86.86,0,0,0-.093-1.112l-.869-.869a.856.856,0,0,0-.61-.254.848.848,0,0,0-.5.16L9.572,2.1a5.477,5.477,0,0,0-.986-.406L8.423.722A.862.862,0,0,0,7.571,0H6.342a.862.862,0,0,0-.852.721l-.169.992a5.4,5.4,0,0,0-.948.4l-.8-.578a.862.862,0,0,0-1.112.093L1.587,2.5A.864.864,0,0,0,1.494,3.61l.583.82a5.406,5.406,0,0,0-.388.954l-.969.163A.862.862,0,0,0,0,6.4V7.627a.862.862,0,0,0,.721.852l.992.169a5.4,5.4,0,0,0,.4.948l-.575.8a.86.86,0,0,0,.093,1.112l.869.869a.856.856,0,0,0,.61.254.848.848,0,0,0,.5-.16l.82-.583a5.519,5.519,0,0,0,.922.379l.163.98a.862.862,0,0,0,.852.721H7.6a.862.862,0,0,0,.852-.721l.166-.98a5.535,5.535,0,0,0,.951-.394l.808.578a.856.856,0,0,0,.5.16h0a.856.856,0,0,0,.61-.254l.869-.869a.864.864,0,0,0,.093-1.112l-.578-.811a5.5,5.5,0,0,0,.394-.951l.98-.163a.862.862,0,0,0,.721-.852V6.37A.851.851,0,0,0,13.251,5.518ZM13.184,7.6a.076.076,0,0,1-.064.076l-1.225.2a.392.392,0,0,0-.315.289,4.67,4.67,0,0,1-.508,1.222.394.394,0,0,0,.018.429l.721,1.015a.079.079,0,0,1-.009.1l-.869.869a.074.074,0,0,1-.055.023.072.072,0,0,1-.044-.015L9.82,11.09a.394.394,0,0,0-.429-.018,4.67,4.67,0,0,1-1.222.508.387.387,0,0,0-.289.315l-.207,1.225a.076.076,0,0,1-.076.064H6.369a.076.076,0,0,1-.076-.064l-.2-1.225A.392.392,0,0,0,5.8,11.58a4.85,4.85,0,0,1-1.2-.49.4.4,0,0,0-.2-.053.384.384,0,0,0-.228.073l-1.021.726a.087.087,0,0,1-.044.015.078.078,0,0,1-.055-.023l-.869-.869a.079.079,0,0,1-.009-.1L2.9,9.853a.4.4,0,0,0,.018-.432A4.626,4.626,0,0,1,2.4,8.2a.4.4,0,0,0-.315-.289L.852,7.7a.076.076,0,0,1-.064-.076V6.4a.076.076,0,0,1,.064-.076l1.217-.2a.394.394,0,0,0,.318-.292,4.666,4.666,0,0,1,.5-1.225.39.39,0,0,0-.02-.426L2.138,3.155a.079.079,0,0,1,.009-.1l.869-.869a.074.074,0,0,1,.055-.023.072.072,0,0,1,.044.015L4.122,2.9a.4.4,0,0,0,.432.018A4.626,4.626,0,0,1,5.774,2.4a.4.4,0,0,0,.289-.315L6.272.85A.076.076,0,0,1,6.348.786H7.576A.076.076,0,0,1,7.652.85l.2,1.217a.394.394,0,0,0,.292.318A4.735,4.735,0,0,1,9.4,2.9a.394.394,0,0,0,.429-.018l1.007-.724a.087.087,0,0,1,.044-.015.078.078,0,0,1,.055.023l.869.869a.079.079,0,0,1,.009.1l-.721,1.012a.394.394,0,0,0-.018.429A4.67,4.67,0,0,1,11.582,5.8a.387.387,0,0,0,.315.289l1.225.207a.076.076,0,0,1,.064.076V7.6Z" transform="translate(0 -0.001)" fill="#fff"/>
      <path id="Path_1904" data-name="Path 1904" d="M139.114,136a3.014,3.014,0,1,0,3.014,3.014A3.016,3.016,0,0,0,139.114,136Zm0,5.24a2.226,2.226,0,1,1,2.226-2.226A2.227,2.227,0,0,1,139.114,141.241Z" transform="translate(-132.129 -132.033)" fill="#fff"/>
    </g>
  </g>
</svg>
