<svg xmlns="http://www.w3.org/2000/svg" viewBox="0 0 50 30">
  <defs>
    <style>
      .cls-1 {
        fill: #0f87c4;
        stroke: #0f87c4;
      }

      .cls-2 {
        fill: #fff;
        stroke: #fff;
        stroke-width: 0.5px;
      }

      .cls-3 {
        stroke: none;
      }

      .cls-4 {
        fill: none;
      }
    </style>
  </defs>
  <g id="Group_1064" data-name="Group 1064" transform="translate(-377.515 -335)">
    <g id="Rectangle_382" data-name="Rectangle 382" class="cls-1" transform="translate(377.515 335)">
      <rect class="cls-3" width="50" height="30" rx="15"/>
      <rect class="cls-4" x="0.5" y="0.5" width="49" height="29" rx="14.5"/>
    </g>
    <path id="Path_1539" data-name="Path 1539" class="cls-2" d="M15.532,0c-.116.131-.2.241-.3.342-1.8,1.916-3.616,3.827-5.413,5.752a1.057,1.057,0,0,0-.259.647q-.027,3.021,0,6.045a.637.637,0,0,1-.32.607c-1.153.784-2.295,1.584-3.528,2.438v-.592c0-2.8-.006-5.59.006-8.383a1.181,1.181,0,0,0-.33-.864C3.595,4.019,1.822,2.032,0,0ZM1.968.857c.153.177.247.287.342.394,1.337,1.489,2.679,2.972,4,4.477a1.168,1.168,0,0,1,.269.7c.018,2.368.012,4.739.012,7.107v.6c.65-.449,1.208-.848,1.782-1.224a.594.594,0,0,0,.3-.574c-.012-1.971-.015-3.943.006-5.914a1.115,1.115,0,0,1,.269-.687c1.419-1.532,2.862-3.045,4.3-4.565.082-.088.153-.186.259-.314C9.64.857,5.847.857,1.968.857Z" transform="translate(395.015 342.5)"/>
  </g>
</svg>
