<svg id="HOME" xmlns="http://www.w3.org/2000/svg" width="16.757" height="17.55" viewBox="0 0 16.757 17.55">
  <path id="Path_1488" data-name="Path 1488" d="M97.955,67.4l-.022-.017-7.626-5.421a.446.446,0,0,0-.518,0l-7.6,5.421-.022.017a1.7,1.7,0,0,0-.483,1.361v9.843a.8.8,0,0,0,.806.825h5.392a.8.8,0,0,0,.806-.825V72.238h2.731v6.368a.8.8,0,0,0,.807.825h5.409a.8.8,0,0,0,.807-.825V68.763A1.692,1.692,0,0,0,97.955,67.4Zm-15.38,11.2V78.6h0S82.576,78.606,82.576,78.606Zm14.97-.068H92.31V72.17a.8.8,0,0,0-.807-.825H88.6a.8.8,0,0,0-.806.825v6.368H82.576V68.763a1.1,1.1,0,0,1,.163-.674l7.311-5.214,7.335,5.214a1.1,1.1,0,0,1,.163.674Z" transform="translate(-81.683 -61.881)" fill="#fff"/>
</svg>
