<svg xmlns="http://www.w3.org/2000/svg" width="17.117" height="15.287" viewBox="0 0 17.117 15.287">
  <g id="noun_manage_1562274" transform="translate(-8.725 -53.001)">
    <g id="Group_1340" data-name="Group 1340" transform="translate(8.725 53.001)">
      <path id="Path_1905" data-name="Path 1905" d="M165.066,148.818l-.692-.089a3.093,3.093,0,0,0-.147-.341l.425-.543a.35.35,0,0,0-.024-.468l-.857-.857a.351.351,0,0,0-.467-.024l-.544.426a3.051,3.051,0,0,0-.341-.147l-.088-.693a.352.352,0,0,0-.328-.3h-1.213a.35.35,0,0,0-.064,0h-.01a.349.349,0,0,0-.281.3l-.088.692a3.023,3.023,0,0,0-.341.147l-.542-.425a.351.351,0,0,0-.469.024l-.857.857a.35.35,0,0,0-.024.467l.426.544a3.079,3.079,0,0,0-.147.341l-.693.089a.351.351,0,0,0-.3.35v1.218a.352.352,0,0,0,.3.328l.692.088a3.066,3.066,0,0,0,.147.341l-.425.542a.351.351,0,0,0,.024.468l.857.857a.351.351,0,0,0,.467.024l.544-.426a3.077,3.077,0,0,0,.341.147l.089.693a.352.352,0,0,0,.348.3H162a.352.352,0,0,0,.328-.305l.088-.692a3.041,3.041,0,0,0,.341-.147l.542.425a.352.352,0,0,0,.221.078h0a.35.35,0,0,0,.247-.1l.857-.857a.35.35,0,0,0,.025-.467l-.426-.544a3.032,3.032,0,0,0,.147-.341l.693-.088a.352.352,0,0,0,.3-.328v-1.218A.351.351,0,0,0,165.066,148.818Zm-.421,1.239-.569.069a.346.346,0,0,0-.3.259,2.461,2.461,0,0,1-.26.634.354.354,0,0,0,.027.4l.375.457-.426.427-.459-.376a.351.351,0,0,0-.4-.024,2.478,2.478,0,0,1-.636.264.347.347,0,0,0-.257.3l-.07.579h-.583l-.069-.578a.351.351,0,0,0-.258-.3,2.464,2.464,0,0,1-.634-.262.357.357,0,0,0-.4.025l-.457.374-.427-.427.376-.459a.352.352,0,0,0,.024-.4,2.474,2.474,0,0,1-.264-.636.348.348,0,0,0-.3-.257l-.58-.07v-.583l.577-.069a.352.352,0,0,0,.3-.259,2.466,2.466,0,0,1,.262-.634.354.354,0,0,0-.025-.4l-.373-.456.426-.414.459.362a.352.352,0,0,0,.4.024,2.476,2.476,0,0,1,.636-.264.338.338,0,0,0,.257-.29l.069-.571h.583l.069.569a.346.346,0,0,0,.259.3,2.46,2.46,0,0,1,.634.259.358.358,0,0,0,.4-.025l.459-.362.426.413-.375.458a.353.353,0,0,0-.024.4,2.465,2.465,0,0,1,.263.636.338.338,0,0,0,.29.257l.571.069v.583Z" transform="translate(-148.255 -138.466)" fill="#fff"/>
      <path id="Path_1906" data-name="Path 1906" d="M184.06,170.4a2.048,2.048,0,1,0,2.048,2.048A2.05,2.05,0,0,0,184.06,170.4Zm.953,3a1.351,1.351,0,1,1,.393-.953A1.337,1.337,0,0,1,185.013,173.4Z" transform="translate(-170.931 -161.152)" fill="#fff"/>
      <path id="Path_1907" data-name="Path 1907" d="M42.183,65.656v-9.1a.638.638,0,0,1,.639-.636H55.649a.639.639,0,0,1,.64.636v3.382h.788V56.553a1.4,1.4,0,0,0-1.428-1.425h-3.3V53.657A.648.648,0,0,0,51.718,53H46.753a.647.647,0,0,0-.63.656v1.472h-3.3a1.4,1.4,0,0,0-1.427,1.425v9.1a1.424,1.424,0,0,0,1.427,1.451h7.4V66.24h-7.4A.6.6,0,0,1,42.183,65.656ZM46.99,53.868h4.492v1.261H46.99Z" transform="translate(-41.395 -53.001)" fill="#fff"/>
    </g>
  </g>
</svg>
