<svg xmlns="http://www.w3.org/2000/svg" width="14.842" height="15.315" viewBox="0 0 14.842 15.315">
  <g id="icon" transform="translate(-0.434)">
    <path id="Path_1902" data-name="Path 1902" d="M14.039,0H1.671A1.229,1.229,0,0,0,.434,1.22V14.1a1.229,1.229,0,0,0,1.237,1.219H14.039A1.229,1.229,0,0,0,15.276,14.1V1.22A1.229,1.229,0,0,0,14.039,0ZM2.411.917H13.3a1.08,1.08,0,0,1,1.09,1.073v2.1H1.322V1.99A1.081,1.081,0,0,1,2.411.917ZM1.322,13.326V5.28H9.39V14.4H2.411A1.083,1.083,0,0,1,1.322,13.326ZM13.3,14.4H10.621V5.28h3.766v8.046A1.081,1.081,0,0,1,13.3,14.4Z" fill="#fff"/>
  </g>
</svg>
