<svg xmlns="http://www.w3.org/2000/svg" width="15.358" height="14.466" viewBox="0 0 15.358 14.466">
  <path id="users" d="M13.9,13.625l-2.413-1.239a.684.684,0,0,1-.369-.613V10.9c.058-.073.119-.155.182-.247a6,6,0,0,0,.746-1.5,1.031,1.031,0,0,0,.588-.938V7.169a1.05,1.05,0,0,0-.253-.681V5.108a2.37,2.37,0,0,0-.528-1.692,3.134,3.134,0,0,0-2.5-.916,3.134,3.134,0,0,0-2.5.916,2.285,2.285,0,0,0-.521,1.246A3.211,3.211,0,0,0,4.8,4.316,2.561,2.561,0,0,0,2.021,6.65V7.838a.915.915,0,0,0-.253.6v.9a.935.935,0,0,0,.331.717,4,4,0,0,0,.921,1.63V12.4a.566.566,0,0,1-.3.5L1.044,13.976A2.064,2.064,0,0,0,0,15.781v.985H15.158V15.717A2.335,2.335,0,0,0,13.9,13.625ZM3.537,15.667v.58H.505v-.466A1.55,1.55,0,0,1,1.3,14.424l1.68-1.082a1.079,1.079,0,0,0,.546-.944v-.931l-.08-.077a3.47,3.47,0,0,1-.876-1.545l-.023-.1-.086-.057a.415.415,0,0,1-.186-.346v-.9a.457.457,0,0,1,.17-.3l.083-.077v-1.4A2.039,2.039,0,0,1,4.8,4.834a2.58,2.58,0,0,1,1.516.426V6.488a1.05,1.05,0,0,0-.253.681V8.206a1.07,1.07,0,0,0,.026.232c.007.03.02.058.03.087a1.043,1.043,0,0,0,.044.13h0a1.035,1.035,0,0,0,.278.357l0,.014c.015.059.031.119.048.176l.02.068.012.036c.009.028.017.056.027.083.015.045.031.092.05.143.008.021.016.04.025.061.021.054.041.107.063.158.005.012.01.026.015.038l.014.033.02.043c.025.056.049.109.074.161l.012.026c.016.032.032.063.048.094.027.053.054.1.081.153l.039.07c.036.064.071.122.1.177l.021.035c.061.1.114.176.158.238l.032.044.018.025v.858a.688.688,0,0,1-.348.6l-.668.374-.116-.011-.047.1-1.421.8A2.35,2.35,0,0,0,3.537,15.667Zm11.116.58H4.042v-.58a1.828,1.828,0,0,1,.924-1.6L7.22,12.806a1.21,1.21,0,0,0,.611-1.058V10.706h0l-.049-.06-.01-.012-.042-.054,0-.006-.047-.065h0c-.038-.054-.085-.123-.137-.208l0-.006c-.025-.04-.051-.083-.078-.129l-.006-.01c-.057-.1-.118-.21-.178-.333h0c-.032-.066-.064-.136-.1-.208h0l-.013-.03h0c-.014-.032-.028-.066-.042-.1L7.11,9.443c-.013-.034-.027-.068-.041-.107-.026-.071-.05-.144-.073-.22l-.014-.046,0-.016c-.024-.082-.046-.166-.066-.252l-.023-.1L6.8,8.641a.521.521,0,0,1-.234-.435V7.169a.518.518,0,0,1,.169-.383l.083-.077V5L6.814,5a1.828,1.828,0,0,1,.41-1.239,2.672,2.672,0,0,1,2.123-.739,2.678,2.678,0,0,1,2.119.734,1.861,1.861,0,0,1,.41,1.308l0,1.649.083.077a.517.517,0,0,1,.169.382V8.206a.514.514,0,0,1-.359.493l-.126.04-.04.128a5.489,5.489,0,0,1-.716,1.482,3.4,3.4,0,0,1-.211.28l-.063.074v1.07a1.2,1.2,0,0,0,.648,1.077l2.413,1.239a1.817,1.817,0,0,1,.98,1.629Z" transform="translate(0.1 -2.4)" fill="#fff" stroke="#fff" stroke-width="0.2"/>
</svg>
